<svg xmlns="http://www.w3.org/2000/svg" xmlns:xlink="http://www.w3.org/1999/xlink" xmlns:lucid="lucid" width="1027.27" height="482.67"><g transform="translate(-159.5 -159.5)" lucid:page-tab-id="0_0"><path d="M620 186a6 6 0 0 1 6-6h148a6 6 0 0 1 6 6v68a6 6 0 0 1-6 6H626a6 6 0 0 1-6-6z" stroke="#3a414a" fill="#fff7a1"/><use xlink:href="#a" transform="matrix(1,0,0,1,632,192) translate(19.06481481481483 33.66666666666666)"/><path d="M639.85 261v42.63a6 6 0 0 1-6 6H346a6 6 0 0 0-6 6v7.5" stroke="#3a414a" fill="none"/><path d="M640.32 261h-.95v-.5h.95z" stroke="#3a414a" stroke-width=".05" fill="#3a414a"/><path d="M340 337.88l-4.63-14.26h9.26z" stroke="#3a414a" fill="#3a414a"/><path d="M260 346a6 6 0 0 1 6-6h148a6 6 0 0 1 6 6v48a6 6 0 0 1-6 6H266a6 6 0 0 1-6-6z" stroke="#3a414a" fill="#d7faf5"/><use xlink:href="#b" transform="matrix(1,0,0,1,272,352) translate(25.592592592592595 22.27777777777778)"/><path d="M700 261v62.12" stroke="#3a414a" fill="none"/><path d="M700.48 261h-.96v-.5h.96z" stroke="#3a414a" stroke-width=".05" fill="#3a414a"/><path d="M700 337.88l-4.63-14.26h9.26z" stroke="#3a414a" fill="#3a414a"/><path d="M620 346a6 6 0 0 1 6-6h148a6 6 0 0 1 6 6v48a6 6 0 0 1-6 6H626a6 6 0 0 1-6-6z" stroke="#3a414a" fill="#d7faf5"/><use xlink:href="#c" transform="matrix(1,0,0,1,632,352) translate(20.00617283950617 22.27777777777778)"/><path d="M763.4 261v42.63a6 6 0 0 0 6 6H1054a6 6 0 0 1 6 6v7.5" stroke="#3a414a" fill="none"/><path d="M763.87 261h-.95v-.5h.95z" stroke="#3a414a" stroke-width=".05" fill="#3a414a"/><path d="M1060 337.88l-4.63-14.26h9.27z" stroke="#3a414a" fill="#3a414a"/><path d="M980 346a6 6 0 0 1 6-6h148a6 6 0 0 1 6 6v48a6 6 0 0 1-6 6H986a6 6 0 0 1-6-6z" stroke="#3a414a" fill="#d7faf5"/><use xlink:href="#d" transform="matrix(1,0,0,1,992,352) translate(33.44444444444445 15.999999999999998)"/><use xlink:href="#e" transform="matrix(1,0,0,1,992,352) translate(95.94444444444443 15.999999999999998)"/><use xlink:href="#f" transform="matrix(1,0,0,1,992,352) translate(28.16666666666667 39.99999999999999)"/><path d="M285.1 400.74l-36.7 20.55" stroke="#3a414a" fill="none"/><path d="M285.32 401.17l-.37-.67h1.56zM248.66 421.7l-.32.17-.1-.1-.65-.57.6-.33z" stroke="#3a414a" stroke-width=".05" fill="#3a414a"/><path d="M180 426a6 6 0 0 1 6-6h58a6 6 0 0 1 6 6v28a6 6 0 0 1-6 6h-58a6 6 0 0 1-6-6z" stroke="#000" stroke-opacity="0" fill="#fff" fill-opacity="0"/><use xlink:href="#g" transform="matrix(1,0,0,1,185,425) translate(7.253086419753085 19.65277777777778)"/><path d="M299.7 400.4l-44.4 59.2M299.7 400.4l.3-.4" stroke="#3a414a" fill="none"/><path d="M255.7 459.88l-.1.12h-1.2l.53-.7z" stroke="#3a414a" stroke-width=".05" fill="#3a414a"/><path d="M220 466a6 6 0 0 1 6-6h58a6 6 0 0 1 6 6v28a6 6 0 0 1-6 6h-58a6 6 0 0 1-6-6z" stroke="#000" stroke-opacity="0" fill="#fff" fill-opacity="0"/><use xlink:href="#h" transform="matrix(1,0,0,1,225,465) translate(-4.043209876543209 19.444444444444443)"/><path d="M329.14 401L324 439.5" stroke="#3a414a" fill="none"/><path d="M329.6 401.07l-.93-.12.06-.45h.95zM324.48 439.55l-.06.45h-.95l.07-.57z" stroke="#3a414a" stroke-width=".05" fill="#3a414a"/><path d="M290 446a6 6 0 0 1 6-6h58a6 6 0 0 1 6 6v8a6 6 0 0 1-6 6h-58a6 6 0 0 1-6-6z" stroke="#000" stroke-opacity="0" fill="#fff" fill-opacity="0"/><use xlink:href="#i" transform="matrix(1,0,0,1,295,445) translate(-3.209876543209873 17.77777777777778)"/><path d="M363.3 401l2.37 78.5" stroke="#3a414a" fill="none"/><path d="M363.8 401l-.96.03-.02-.53h.95zM366.16 480h-.95v-.5l.95-.03z" stroke="#3a414a" stroke-width=".05" fill="#3a414a"/><path d="M320 486a6 6 0 0 1 6-6h79.38a6 6 0 0 1 6 6v28a6 6 0 0 1-6 6H326a6 6 0 0 1-6-6z" stroke="#000" stroke-opacity="0" fill="#fff" fill-opacity="0"/><use xlink:href="#j" transform="matrix(1,0,0,1,325,485) translate(-2.672839506172835 19.444444444444443)"/><path d="M381.22 400.88l15.68 18.74" stroke="#3a414a" fill="none"/><path d="M381.6 400.6l-.74.6-.58-.7h1.24zM397.84 420h-1.24l-.07-.1.73-.6z" stroke="#3a414a" stroke-width=".05" fill="#3a414a"/><path d="M380 426a6 6 0 0 1 6-6h36.62a6 6 0 0 1 6 6v28a6 6 0 0 1-6 6H386a6 6 0 0 1-6-6z" stroke="#000" stroke-opacity="0" fill="#fff" fill-opacity="0"/><use xlink:href="#k" transform="matrix(1,0,0,1,385,425) translate(-10.098765432098766 19.444444444444443)"/><path d="M416.3 400.57l52 59.06" stroke="#3a414a" fill="none"/><path d="M416.65 400.27l-.7.63-.52-.58.58-.14.43-.17zM469.26 460H468l-.07-.07.7-.63z" stroke="#3a414a" stroke-width=".05" fill="#3a414a"/><path d="M428.62 466a6 6 0 0 1 6-6h68a6 6 0 0 1 6 6v28a6 6 0 0 1-6 6h-68a6 6 0 0 1-6-6z" stroke="#000" stroke-opacity="0" fill="#fff" fill-opacity="0"/><use xlink:href="#l" transform="matrix(1,0,0,1,433.62383392114646,465) translate(-14.25925925925926 19.444444444444443)"/><path d="M699.65 400.85l-18.8 18.8" stroke="#3a414a" fill="none"/><path d="M699.97 401.2l-.67-.67.03-.03h1.34zM681.2 419.97l-.03.03h-1.34l.7-.7z" stroke="#3a414a" stroke-width=".05" fill="#3a414a"/><path d="M700.35 400.85l19.3 19.3" stroke="#3a414a" fill="none"/><path d="M700.7 400.53l-.67.67-.7-.7h1.34zM720 419.83v1.34l-.7-.7.67-.67z" stroke="#3a414a" stroke-width=".05" fill="#3a414a"/><path d="M580 426a6 6 0 0 1 6-6h95.75a6 6 0 0 1 6 6v28a6 6 0 0 1-6 6H586a6 6 0 0 1-6-6z" stroke="#000" stroke-opacity="0" fill="#fff" fill-opacity="0"/><use xlink:href="#m" transform="matrix(1,0,0,1,585,425) translate(1.5617283950617349 19.65277777777778)"/><path d="M720 414.33a6 6 0 0 1 6-6h95.75a6 6 0 0 1 6 6v51.34a6 6 0 0 1-6 6H726a6 6 0 0 1-6-6z" stroke="#000" stroke-opacity="0" fill="#fff" fill-opacity="0"/><use xlink:href="#n" transform="matrix(1,0,0,1,725,413.3333333333333) translate(7.734567901234563 31.27777777777778)"/><path d="M634.93 460.5v27.87" stroke="#3a414a" fill="none"/><path d="M635.4 460.5h-.94v-.5h.95z" stroke="#3a414a" stroke-width=".05" fill="#3a414a"/><path d="M634.93 499.02l-7.63-12.9h15.27z" stroke="#3a414a" fill="#fff"/><path d="M620 506a6 6 0 0 1 6-6h148a6 6 0 0 1 6 6v49.67a6 6 0 0 1-6 6H626a6 6 0 0 1-6-6z" stroke="#000" stroke-opacity="0" fill="#fff" fill-opacity="0"/><use xlink:href="#o" transform="matrix(1,0,0,1,625,505) translate(0.8765432098765586 17.47222222222222)"/><use xlink:href="#p" transform="matrix(1,0,0,1,625,505) translate(57.41975308641976 17.47222222222222)"/><use xlink:href="#q" transform="matrix(1,0,0,1,625,505) translate(78.60493827160494 17.47222222222222)"/><use xlink:href="#r" transform="matrix(1,0,0,1,625,505) translate(105.76543209876542 17.47222222222222)"/><use xlink:href="#s" transform="matrix(1,0,0,1,625,505) translate(26.777777777777786 38.80555555555556)"/><use xlink:href="#q" transform="matrix(1,0,0,1,625,505) translate(39.074074074074076 38.80555555555556)"/><use xlink:href="#t" transform="matrix(1,0,0,1,625,505) translate(66.23456790123457 38.80555555555556)"/><path d="M1060 401v27.37" stroke="#3a414a" fill="none"/><path d="M1060.47 401h-.94v-.5h.94z" stroke="#3a414a" stroke-width=".05" fill="#3a414a"/><path d="M1060 439.02l-7.64-12.9h15.28z" stroke="#3a414a" fill="#fff"/><path d="M980 446a6 6 0 0 1 6-6h148a6 6 0 0 1 6 6v49.67a6 6 0 0 1-6 6H986a6 6 0 0 1-6-6z" stroke="#000" stroke-opacity="0" fill="#fff" fill-opacity="0"/><use xlink:href="#o" transform="matrix(1,0,0,1,985,445) translate(0.8765432098765586 17.47222222222222)"/><use xlink:href="#p" transform="matrix(1,0,0,1,985,445) translate(57.41975308641976 17.47222222222222)"/><use xlink:href="#q" transform="matrix(1,0,0,1,985,445) translate(78.60493827160494 17.47222222222222)"/><use xlink:href="#r" transform="matrix(1,0,0,1,985,445) translate(105.76543209876542 17.47222222222222)"/><use xlink:href="#s" transform="matrix(1,0,0,1,985,445) translate(26.777777777777786 38.80555555555556)"/><use xlink:href="#q" transform="matrix(1,0,0,1,985,445) translate(39.074074074074076 38.80555555555556)"/><use xlink:href="#t" transform="matrix(1,0,0,1,985,445) translate(66.23456790123457 38.80555555555556)"/><path d="M200 460.5v87.87M200 460.5v-.5" stroke="#3a414a" fill="none"/><path d="M200 559.02l-7.64-12.9h15.28z" stroke="#3a414a" fill="#fff"/><path d="M250 500.5v47.87" stroke="#3a414a" fill="none"/><path d="M250.47 500.5h-.94v-.5h.94z" stroke="#3a414a" stroke-width=".05" fill="#3a414a"/><path d="M250 559.02l-7.64-12.9h15.28z" stroke="#3a414a" fill="#fff"/><path d="M305 480.5v67.87M305 480.5v-.5" stroke="#3a414a" fill="none"/><path d="M305 559.02l-7.64-12.9h15.28z" stroke="#3a414a" fill="#fff"/><path d="M354.52 520.5v29.54" stroke="#3a414a" fill="none"/><path d="M355 520.5h-.95v-.5h.95z" stroke="#3a414a" stroke-width=".05" fill="#3a414a"/><path d="M354.52 560.68l-7.63-12.9h15.26z" stroke="#3a414a" fill="#fff"/><path d="M414.83 460.5v87.87" stroke="#3a414a" fill="none"/><path d="M415.3 460.5h-.95v-.5h.95z" stroke="#3a414a" stroke-width=".05" fill="#3a414a"/><path d="M414.83 559.02l-7.64-12.9h15.26z" stroke="#3a414a" fill="#fff"/><path d="M466.62 500.5v47.87" stroke="#3a414a" fill="none"/><path d="M467.1 500.5h-.95v-.5h.95z" stroke="#3a414a" stroke-width=".05" fill="#3a414a"/><path d="M466.62 559.02l-7.63-12.9h15.26z" stroke="#3a414a" fill="#fff"/><path d="M220 567.67a6 6 0 0 1 6-6h228a6 6 0 0 1 6 6v48a6 6 0 0 1-6 6H226a6 6 0 0 1-6-6z" stroke="#000" stroke-opacity="0" fill="#fff" fill-opacity="0"/><g><use xlink:href="#o" transform="matrix(1,0,0,1,225,566.6666666666667) translate(50.012345679012356 29.84722222222222)"/><use xlink:href="#u" transform="matrix(1,0,0,1,225,566.6666666666667) translate(106.55555555555556 29.84722222222222)"/><use xlink:href="#v" transform="matrix(1,0,0,1,225,566.6666666666667) translate(133.61728395061726 29.84722222222222)"/></g><path d="M762.9 460.87l.1 27.5M762.9 460.88v-.5" stroke="#3a414a" fill="none"/><path d="M763.03 499.02l-7.68-12.9 15.27-.04z" stroke="#3a414a" fill="#fff"/><defs><path fill="#cc4e00" d="M10 0v-9l31-5v-208l-31-4v-10h95v10l-30 4v93h110v-93l-30-4v-10h94v10l-30 4v208l30 5v9h-94v-9l30-5v-99H75v99l30 5v9H10" id="w"/><path fill="#cc4e00" d="M130-224c-62 0-78 43-78 106 0 64 16 108 78 108s78-45 78-108-16-106-78-106zm0 228C53 4 15-39 15-118c-1-80 37-120 115-120s115 42 115 120C245-39 207 4 130 4" id="x"/><path fill="#cc4e00" d="M152 0h-7L59-203v189l32 5v9H10v-9l31-5v-208l-31-4v-10h72l76 180 84-180h68v10l-31 4v208l31 5v9h-96v-9l32-5v-189" id="y"/><path fill="#cc4e00" d="M10-9l31-5v-208l-31-4v-10h177v57h-11l-6-38c-28-4-63-3-95-3v92h63l6-28h11v73h-11l-6-29H75v96l105-3 10-43h12l-3 62H10v-9" id="z"/><g id="a"><use transform="matrix(0.09259259259259256,0,0,0.09259259259259256,0,0)" xlink:href="#w"/><use transform="matrix(0.09259259259259256,0,0,0.09259259259259256,23.981481481481474,0)" xlink:href="#x"/><use transform="matrix(0.09259259259259256,0,0,0.09259259259259256,47.96296296296295,0)" xlink:href="#y"/><use transform="matrix(0.09259259259259256,0,0,0.09259259259259256,77.59259259259257,0)" xlink:href="#z"/></g><path fill="#3a414a" d="M111-226l-36 4v207c33-1 73 2 101-4l11-49h11l-3 68H10v-9l31-5v-208l-31-4v-10h101v10" id="A"/><path fill="#3a414a" d="M134-16c44-1 70-21 70-64v-142l-32-4v-10h80v10l-30 4v141c0 57-33 84-91 85-58 0-93-26-93-82v-144l-30-4v-10h94v10l-30 4c7 82-31 209 62 206" id="B"/><path fill="#3a414a" d="M130-224c-62 0-78 43-78 106 0 64 16 108 78 108s78-45 78-108-16-106-78-106zm0 228C53 4 15-39 15-118c-1-80 37-120 115-120s115 42 115 120C245-39 207 4 130 4" id="C"/><path fill="#3a414a" d="M52-115c0 90 69 126 140 93v-67l-30-5v-9h87v9l-23 5v77c-27 8-56 16-90 16C59 2 15-37 15-115c-1-82 41-123 122-123 31 0 59 4 83 10v51h-12l-5-29c-15-12-38-18-65-18-66-1-86 42-86 109" id="D"/><path fill="#3a414a" d="M10 0v-9l31-5v-208l-31-4v-10h95v10l-30 4v93h110v-93l-30-4v-10h94v10l-30 4v208l30 5v9h-94v-9l30-5v-99H75v99l30 5v9H10" id="E"/><path fill="#3a414a" d="M77-14l30 5v9H13v-9l30-5v-208l-30-4v-10h94v10l-30 4v208" id="F"/><g id="b"><use transform="matrix(0.06172839506172839,0,0,0.06172839506172839,0,0)" xlink:href="#A"/><use transform="matrix(0.06172839506172839,0,0,0.06172839506172839,13.518518518518517,0)" xlink:href="#B"/><use transform="matrix(0.06172839506172839,0,0,0.06172839506172839,29.50617283950617,0)" xlink:href="#C"/><use transform="matrix(0.06172839506172839,0,0,0.06172839506172839,45.49382716049382,0)" xlink:href="#D"/><use transform="matrix(0.06172839506172839,0,0,0.06172839506172839,61.481481481481474,0)" xlink:href="#E"/><use transform="matrix(0.06172839506172839,0,0,0.06172839506172839,77.46913580246913,0)" xlink:href="#F"/></g><path fill="#3a414a" d="M75-108c48 3 76-12 76-58s-28-57-76-54v112zm111-58c-1 60-46 78-111 74v78l37 5v9H13v-9l28-5v-208l-31-4v-10c81 1 178-14 176 70" id="G"/><path fill="#3a414a" d="M10-9l31-5v-208l-31-4v-10h177v57h-11l-6-38c-28-4-63-3-95-3v92h63l6-28h11v73h-11l-6-29H75v96l105-3 10-43h12l-3 62H10v-9" id="H"/><path fill="#3a414a" d="M199-173c-1 36-21 56-49 65l64 94 26 5v9h-57l-66-103H75v89l35 5v9H13v-9l28-5v-208l-31-4v-10c80 4 190-20 189 63zM75-119c50 2 89-1 89-51 0-49-39-52-89-50v101" id="I"/><path fill="#3a414a" d="M75-17c87 13 134-18 134-103 0-78-51-106-134-100v203zm171-102C246 5 139 7 10 0v-9l31-5v-208l-31-4v-10h107c82 0 129 35 129 117" id="J"/><g id="c"><use transform="matrix(0.06172839506172839,0,0,0.06172839506172839,0,0)" xlink:href="#G"/><use transform="matrix(0.06172839506172839,0,0,0.06172839506172839,12.345679012345679,0)" xlink:href="#H"/><use transform="matrix(0.06172839506172839,0,0,0.06172839506172839,25.864197530864196,0)" xlink:href="#I"/><use transform="matrix(0.06172839506172839,0,0,0.06172839506172839,40.67901234567901,0)" xlink:href="#F"/><use transform="matrix(0.06172839506172839,0,0,0.06172839506172839,48.02469135802469,0)" xlink:href="#C"/><use transform="matrix(0.06172839506172839,0,0,0.06172839506172839,64.01234567901234,0)" xlink:href="#J"/><use transform="matrix(0.06172839506172839,0,0,0.06172839506172839,80,0)" xlink:href="#C"/></g><path fill="#3a414a" d="M55 0v-9l38-5v-207c-22 1-53 0-70 4l-5 37H7v-56h207v56h-12l-5-37-70-3v206l37 5v9H55" id="K"/><g id="d"><use transform="matrix(0.055555555555555546,0,0,0.055555555555555546,0,0)" xlink:href="#K"/><use transform="matrix(0.055555555555555546,0,0,0.055555555555555546,12.166666666666664,0)" xlink:href="#B"/><use transform="matrix(0.055555555555555546,0,0,0.055555555555555546,26.55555555555555,0)" xlink:href="#K"/><use transform="matrix(0.055555555555555546,0,0,0.055555555555555546,38.722222222222214,0)" xlink:href="#K"/><use transform="matrix(0.055555555555555546,0,0,0.055555555555555546,50.88888888888888,0)" xlink:href="#F"/></g><use transform="matrix(0.055555555555555546,0,0,0.055555555555555546,0,0)" xlink:href="#F" id="e"/><g id="f"><use transform="matrix(0.055555555555555546,0,0,0.055555555555555546,0,0)" xlink:href="#I"/><use transform="matrix(0.055555555555555546,0,0,0.055555555555555546,13.33333333333333,0)" xlink:href="#H"/><use transform="matrix(0.055555555555555546,0,0,0.055555555555555546,25.499999999999993,0)" xlink:href="#G"/><use transform="matrix(0.055555555555555546,0,0,0.055555555555555546,36.6111111111111,0)" xlink:href="#H"/><use transform="matrix(0.055555555555555546,0,0,0.055555555555555546,48.777777777777764,0)" xlink:href="#I"/><use transform="matrix(0.055555555555555546,0,0,0.055555555555555546,60.888888888888864,0)" xlink:href="#K"/><use transform="matrix(0.055555555555555546,0,0,0.055555555555555546,73.05555555555554,0)" xlink:href="#F"/></g><path fill="#3a414a" d="M54-38c-1 25 24 26 44 20v12C71 10 25 9 25-35v-115H4c-2-14 14-10 21-15l18-38h11v38h38v15H54v112" id="L"/><path fill="#3a414a" d="M32-163c41-10 102-14 102 39v112c8 3 24-2 21 12h-45l-4-17C83 13 3 13 13-46c-2-50 45-50 92-51 4-36-5-70-42-56-6 2-12 4-16 6-4 7 0 23-15 20v-36zM42-47c0 41 41 33 63 22v-59c-34 1-63-1-63 37" id="M"/><path fill="#3a414a" d="M65-12l28 4v8H7v-8l28-4v-226l-28-4v-8h58v238" id="N"/><path fill="#3a414a" d="M47-200c-23 0-25-39 0-38 13 0 18 7 20 19-1 11-8 19-20 19zM65-12l28 4v8H8v-8l28-4v-141l-24-4v-8h53v153" id="O"/><g id="g"><use transform="matrix(0.06172839506172839,0,0,0.06172839506172839,0,0)" xlink:href="#F"/><use transform="matrix(0.06172839506172839,0,0,0.06172839506172839,7.345679012345679,0)" xlink:href="#L"/><use transform="matrix(0.06172839506172839,0,0,0.06172839506172839,13.518518518518519,0)" xlink:href="#M"/><use transform="matrix(0.06172839506172839,0,0,0.06172839506172839,23.333333333333336,0)" xlink:href="#N"/><use transform="matrix(0.06172839506172839,0,0,0.06172839506172839,29.506172839506174,0)" xlink:href="#O"/><use transform="matrix(0.06172839506172839,0,0,0.06172839506172839,35.67901234567901,0)" xlink:href="#M"/></g><path fill="#3a414a" d="M124-13C89 8 26 15 26-45v-108c-8-3-24 2-21-12h50v118c-3 37 42 32 69 25v-131l-25-4v-8h54v153c8 3 24-2 21 12h-48" id="P"/><path fill="#3a414a" d="M57-145c16-10 35-24 60-25v45c-19 1-8-30-40-17l-20 6v124l29 4v8H7v-8l21-4v-141c-8-3-24 2-21-12h48" id="Q"/><path fill="#3a414a" d="M45-84c0 64 52 80 104 63 1 25-30 25-55 25-56 0-80-32-80-88 0-76 62-98 131-80v46h-10c-5-15-4-31-23-35-47-10-67 21-67 69" id="R"/><path fill="#3a414a" d="M126-119c3-38-42-31-69-25v132l23 4v8H7v-8l21-4v-226l-24-4v-8h53l-1 98c31-22 99-31 99 31v109c7 3 23-1 20 12h-71v-8l22-4v-107" id="S"/><g id="h"><use transform="matrix(0.06172839506172839,0,0,0.06172839506172839,0,0)" xlink:href="#K"/><use transform="matrix(0.06172839506172839,0,0,0.06172839506172839,12.716049382716047,0)" xlink:href="#P"/><use transform="matrix(0.06172839506172839,0,0,0.06172839506172839,23.827160493827158,0)" xlink:href="#Q"/><use transform="matrix(0.06172839506172839,0,0,0.06172839506172839,31.172839506172835,0)" xlink:href="#R"/><use transform="matrix(0.06172839506172839,0,0,0.06172839506172839,40.98765432098765,0)" xlink:href="#S"/><use transform="matrix(0.06172839506172839,0,0,0.06172839506172839,52.09876543209876,0)" xlink:href="#O"/><use transform="matrix(0.06172839506172839,0,0,0.06172839506172839,58.2716049382716,0)" xlink:href="#M"/></g><path fill="#3a414a" d="M75-106v92l39 5v9H13v-9l28-5v-208l-31-4v-10h177v57h-11l-6-38c-28-4-63-3-95-3v98h69l5-28h11v73h-11l-5-29H75" id="T"/><path fill="#3a414a" d="M125-118c4-37-41-34-68-26v132l23 4v8H8C5-13 21-9 28-12v-141c-7-3-23 1-20-12h47l2 13c31-23 98-29 98 31v109c7 3 23-1 20 12h-72v-8l22-4v-106" id="U"/><g id="i"><use transform="matrix(0.06172839506172839,0,0,0.06172839506172839,0,0)" xlink:href="#T"/><use transform="matrix(0.06172839506172839,0,0,0.06172839506172839,12.345679012345679,0)" xlink:href="#Q"/><use transform="matrix(0.06172839506172839,0,0,0.06172839506172839,19.691358024691358,0)" xlink:href="#M"/><use transform="matrix(0.06172839506172839,0,0,0.06172839506172839,29.50617283950617,0)" xlink:href="#U"/><use transform="matrix(0.06172839506172839,0,0,0.06172839506172839,40.61728395061728,0)" xlink:href="#R"/><use transform="matrix(0.06172839506172839,0,0,0.06172839506172839,50.432098765432094,0)" xlink:href="#O"/><use transform="matrix(0.06172839506172839,0,0,0.06172839506172839,56.60493827160494,0)" xlink:href="#M"/></g><path fill="#3a414a" d="M84-170c49 0 66 33 63 87H46c-8 60 38 80 95 63v10C128-2 108 4 88 4 34 4 14-29 14-84c-1-54 22-86 70-86zm33 73c12-57-57-82-69-24-1 7-2 15-2 24h71" id="V"/><path fill="#3a414a" d="M126-118c4-37-42-32-68-25v131l24 4v8H8C5-13 21-9 28-12v-141c-7-3-23 1-20-12h48l1 13c22-15 77-30 92 2 32-22 104-36 104 29v109c8 3 24-2 21 12h-75v-8l25-4v-106c3-39-45-31-72-24 7 37 1 88 3 130l25 4v8h-78v-8l24-4v-106" id="W"/><g id="j"><use transform="matrix(0.06172839506172839,0,0,0.06172839506172839,0,0)" xlink:href="#D"/><use transform="matrix(0.06172839506172839,0,0,0.06172839506172839,15.987654320987653,0)" xlink:href="#V"/><use transform="matrix(0.06172839506172839,0,0,0.06172839506172839,25.80246913580247,0)" xlink:href="#Q"/><use transform="matrix(0.06172839506172839,0,0,0.06172839506172839,33.148148148148145,0)" xlink:href="#W"/><use transform="matrix(0.06172839506172839,0,0,0.06172839506172839,50.432098765432094,0)" xlink:href="#M"/><use transform="matrix(0.06172839506172839,0,0,0.06172839506172839,60.24691358024691,0)" xlink:href="#U"/><use transform="matrix(0.06172839506172839,0,0,0.06172839506172839,71.35802469135803,0)" xlink:href="#O"/><use transform="matrix(0.06172839506172839,0,0,0.06172839506172839,77.53086419753086,0)" xlink:href="#M"/></g><path fill="#3a414a" d="M41-130c7 48 86 23 86 84 0 56-69 57-112 41v-40c20 0 9 29 31 31 35 19 77-26 41-50-27-18-72-13-72-59 0-50 58-52 100-41v36c-19 1-8-25-28-25-21-7-50-1-46 23" id="X"/><g id="k"><use transform="matrix(0.06172839506172839,0,0,0.06172839506172839,0,0)" xlink:href="#I"/><use transform="matrix(0.06172839506172839,0,0,0.06172839506172839,14.814814814814813,0)" xlink:href="#P"/><use transform="matrix(0.06172839506172839,0,0,0.06172839506172839,25.925925925925924,0)" xlink:href="#X"/><use transform="matrix(0.06172839506172839,0,0,0.06172839506172839,34.5679012345679,0)" xlink:href="#X"/><use transform="matrix(0.06172839506172839,0,0,0.06172839506172839,43.20987654320987,0)" xlink:href="#O"/><use transform="matrix(0.06172839506172839,0,0,0.06172839506172839,49.382716049382715,0)" xlink:href="#M"/></g><path fill="#3a414a" d="M152 0h-7L59-203v189l32 5v9H10v-9l31-5v-208l-31-4v-10h72l76 180 84-180h68v10l-31 4v208l31 5v9h-96v-9l32-5v-189" id="Y"/><path fill="#3a414a" d="M13-81c0-71 46-101 114-85l-1-72-28-4v-8h57v238c8 3 24-2 21 12h-47l-2-12C80 23 13-1 13-81zm77-74c-37 1-44 33-45 74 0 38 9 66 45 66 14 0 27-3 36-7v-130c-10-1-24-3-36-3" id="Z"/><path fill="#3a414a" d="M90-170c52 0 76 32 76 87 0 54-24 87-77 87-51 0-75-34-75-87 0-54 24-87 76-87zM89-10c39 0 46-35 46-73 0-39-7-73-46-73-39 1-44 34-44 73s6 72 44 73" id="aa"/><g id="l"><use transform="matrix(0.06172839506172839,0,0,0.06172839506172839,0,0)" xlink:href="#Y"/><use transform="matrix(0.06172839506172839,0,0,0.06172839506172839,19.753086419753085,0)" xlink:href="#M"/><use transform="matrix(0.06172839506172839,0,0,0.06172839506172839,29.5679012345679,0)" xlink:href="#R"/><use transform="matrix(0.06172839506172839,0,0,0.06172839506172839,39.382716049382715,0)" xlink:href="#V"/><use transform="matrix(0.06172839506172839,0,0,0.06172839506172839,49.19753086419753,0)" xlink:href="#Z"/><use transform="matrix(0.06172839506172839,0,0,0.06172839506172839,60.308641975308646,0)" xlink:href="#aa"/><use transform="matrix(0.06172839506172839,0,0,0.06172839506172839,71.41975308641976,0)" xlink:href="#U"/><use transform="matrix(0.06172839506172839,0,0,0.06172839506172839,82.53086419753087,0)" xlink:href="#O"/><use transform="matrix(0.06172839506172839,0,0,0.06172839506172839,88.70370370370371,0)" xlink:href="#M"/></g><g id="m"><use transform="matrix(0.06172839506172839,0,0,0.06172839506172839,0,0)" xlink:href="#G"/><use transform="matrix(0.06172839506172839,0,0,0.06172839506172839,12.345679012345679,0)" xlink:href="#M"/><use transform="matrix(0.06172839506172839,0,0,0.06172839506172839,22.160493827160494,0)" xlink:href="#N"/><use transform="matrix(0.06172839506172839,0,0,0.06172839506172839,28.333333333333332,0)" xlink:href="#V"/><use transform="matrix(0.06172839506172839,0,0,0.06172839506172839,38.148148148148145,0)" xlink:href="#aa"/><use transform="matrix(0.06172839506172839,0,0,0.06172839506172839,49.25925925925925,0)" xlink:href="#N"/><use transform="matrix(0.06172839506172839,0,0,0.06172839506172839,55.432098765432094,0)" xlink:href="#O"/><use transform="matrix(0.06172839506172839,0,0,0.06172839506172839,61.60493827160494,0)" xlink:href="#L"/><use transform="matrix(0.06172839506172839,0,0,0.06172839506172839,67.77777777777777,0)" xlink:href="#O"/><use transform="matrix(0.06172839506172839,0,0,0.06172839506172839,73.9506172839506,0)" xlink:href="#R"/><use transform="matrix(0.06172839506172839,0,0,0.06172839506172839,83.76543209876542,0)" xlink:href="#aa"/></g><path fill="#3a414a" d="M203-222l-32-4v-10h81v10l-31 4V0h-17L59-212v198l32 5v9H10v-9l31-5v-208l-31-4v-10h72L203-61v-161" id="ab"/><g id="n"><use transform="matrix(0.06172839506172839,0,0,0.06172839506172839,0,0)" xlink:href="#ab"/><use transform="matrix(0.06172839506172839,0,0,0.06172839506172839,15.987654320987653,0)" xlink:href="#V"/><use transform="matrix(0.06172839506172839,0,0,0.06172839506172839,25.80246913580247,0)" xlink:href="#aa"/><use transform="matrix(0.06172839506172839,0,0,0.06172839506172839,36.91358024691358,0)" xlink:href="#N"/><use transform="matrix(0.06172839506172839,0,0,0.06172839506172839,43.086419753086425,0)" xlink:href="#O"/><use transform="matrix(0.06172839506172839,0,0,0.06172839506172839,49.25925925925927,0)" xlink:href="#L"/><use transform="matrix(0.06172839506172839,0,0,0.06172839506172839,55.43209876543211,0)" xlink:href="#O"/><use transform="matrix(0.06172839506172839,0,0,0.06172839506172839,61.60493827160495,0)" xlink:href="#R"/><use transform="matrix(0.06172839506172839,0,0,0.06172839506172839,71.41975308641976,0)" xlink:href="#aa"/></g><path fill="#3a414a" d="M108-235c-52 28-62 95-58 178 3 56 21 97 58 119v15C7 49-17-153 67-223c12-10 25-19 41-27v15" id="ac"/><path fill="#3a414a" d="M166-85c3 67-44 102-111 85l1 64 29 4v9H6v-9l21-4v-217c-7-3-22 1-19-12h46l1 9c11-8 26-14 45-14 47 2 64 36 66 85zM56-13c53 14 83-14 78-72 7-53-33-79-78-60v132" id="ad"/><g id="o"><use transform="matrix(0.049382716049382706,0,0,0.049382716049382706,0,0)" xlink:href="#ac"/><use transform="matrix(0.049382716049382706,0,0,0.049382716049382706,5.876543209876542,0)" xlink:href="#Q"/><use transform="matrix(0.049382716049382706,0,0,0.049382716049382706,11.753086419753084,0)" xlink:href="#V"/><use transform="matrix(0.049382716049382706,0,0,0.049382716049382706,19.604938271604933,0)" xlink:href="#ad"/><use transform="matrix(0.049382716049382706,0,0,0.049382716049382706,28.493827160493822,0)" xlink:href="#V"/><use transform="matrix(0.049382716049382706,0,0,0.049382716049382706,36.34567901234567,0)" xlink:href="#Q"/><use transform="matrix(0.049382716049382706,0,0,0.049382716049382706,42.222222222222214,0)" xlink:href="#L"/><use transform="matrix(0.049382716049382706,0,0,0.049382716049382706,47.16049382716049,0)" xlink:href="#O"/></g><g id="p"><use transform="matrix(0.049382716049382706,0,0,0.049382716049382706,0,0)" xlink:href="#Z"/><use transform="matrix(0.049382716049382706,0,0,0.049382716049382706,8.888888888888888,0)" xlink:href="#M"/></g><path fill="#3a414a" d="M124-13C89 8 26 15 26-45v-108c-8-3-24 2-21-12h50v118c-3 37 42 32 69 25v-131l-25-4v-8h54v153c8 3 24-2 21 12h-48zM98-197l-62-47v-6h37c11 19 28 30 35 53H98" id="ae"/><g id="q"><use transform="matrix(0.049382716049382706,0,0,0.049382716049382706,0,0)" xlink:href="#ad"/><use transform="matrix(0.049382716049382706,0,0,0.049382716049382706,8.888888888888888,0)" xlink:href="#O"/><use transform="matrix(0.049382716049382706,0,0,0.049382716049382706,13.827160493827158,0)" xlink:href="#ae"/></g><g id="r"><use transform="matrix(0.049382716049382706,0,0,0.049382716049382706,0,0)" xlink:href="#M"/><use transform="matrix(0.049382716049382706,0,0,0.049382716049382706,7.85185185185185,0)" xlink:href="#U"/><use transform="matrix(0.049382716049382706,0,0,0.049382716049382706,16.740740740740737,0)" xlink:href="#L"/><use transform="matrix(0.049382716049382706,0,0,0.049382716049382706,21.679012345679006,0)" xlink:href="#O"/><use transform="matrix(0.049382716049382706,0,0,0.049382716049382706,26.617283950617278,0)" xlink:href="#R"/><use transform="matrix(0.049382716049382706,0,0,0.049382716049382706,34.469135802469125,0)" xlink:href="#aa"/></g><use transform="matrix(0.049382716049382706,0,0,0.049382716049382706,0,0)" xlink:href="#M" id="s"/><path fill="#3a414a" d="M12-250C113-222 137-19 52 49 40 59 28 69 12 77V62C56 37 70-16 70-87c0-70-13-123-58-148v-15" id="af"/><g id="t"><use transform="matrix(0.049382716049382706,0,0,0.049382716049382706,0,0)" xlink:href="#Q"/><use transform="matrix(0.049382716049382706,0,0,0.049382716049382706,5.876543209876542,0)" xlink:href="#V"/><use transform="matrix(0.049382716049382706,0,0,0.049382716049382706,13.728395061728392,0)" xlink:href="#R"/><use transform="matrix(0.049382716049382706,0,0,0.049382716049382706,21.580246913580243,0)" xlink:href="#V"/><use transform="matrix(0.049382716049382706,0,0,0.049382716049382706,29.432098765432094,0)" xlink:href="#U"/><use transform="matrix(0.049382716049382706,0,0,0.049382716049382706,38.32098765432098,0)" xlink:href="#L"/><use transform="matrix(0.049382716049382706,0,0,0.049382716049382706,43.25925925925925,0)" xlink:href="#V"/><use transform="matrix(0.049382716049382706,0,0,0.049382716049382706,51.1111111111111,0)" xlink:href="#af"/></g><g id="u"><use transform="matrix(0.049382716049382706,0,0,0.049382716049382706,0,0)" xlink:href="#ad"/><use transform="matrix(0.049382716049382706,0,0,0.049382716049382706,8.888888888888888,0)" xlink:href="#V"/><use transform="matrix(0.049382716049382706,0,0,0.049382716049382706,16.740740740740737,0)" xlink:href="#Q"/></g><path fill="#3a414a" d="M141-152c28 39 5 97-54 97-9 0-20-2-27-3L49-35c29 22 130-14 124 52-4 45-38 57-88 61C21 83-8 26 45-2 33-6 22-15 21-31l28-31c-19-9-28-26-28-51-2-51 53-65 100-52l38-20 7 8zM85 64c35 0 61-11 61-42 0-35-57-17-89-21-9 8-16 19-17 34 0 25 19 29 45 29zM52-113c1 26 7 46 35 44 28-1 34-16 35-44 0-26-6-43-34-43s-36 17-36 43" id="ag"/><g id="v"><use transform="matrix(0.049382716049382706,0,0,0.049382716049382706,0,0)" xlink:href="#N"/><use transform="matrix(0.049382716049382706,0,0,0.049382716049382706,4.93827160493827,0)" xlink:href="#P"/><use transform="matrix(0.049382716049382706,0,0,0.049382716049382706,13.827160493827158,0)" xlink:href="#aa"/><use transform="matrix(0.049382716049382706,0,0,0.049382716049382706,22.716049382716044,0)" xlink:href="#ag"/><use transform="matrix(0.049382716049382706,0,0,0.049382716049382706,31.604938271604933,0)" xlink:href="#aa"/><use transform="matrix(0.049382716049382706,0,0,0.049382716049382706,40.493827160493815,0)" xlink:href="#af"/></g></defs></g></svg>